<svg xmlns="http://www.w3.org/2000/svg" viewBox="0 0 128 128">
  <defs>
    <linearGradient id="fullGrad" x1="0%" y1="0%" x2="100%" y2="100%">
      <stop offset="0%" style="stop-color:#06b6d4;stop-opacity:1" />
      <stop offset="50%" style="stop-color:#3b82f6;stop-opacity:1" />
      <stop offset="100%" style="stop-color:#a855f7;stop-opacity:1" />
    </linearGradient>

    <mask id="starHole">
      <rect x="0" y="0" width="128" height="128" fill="white" />
      <path d="M64 36 
               C78 50, 78 50, 92 64 
               C78 78, 78 78, 64 92 
               C50 78, 50 78, 36 64 
               C50 50, 50 50, 64 36 Z" 
            fill="black" />
    </mask>
  </defs>

  <path d="M64 0 
           C96 32, 96 32, 128 64 
           C96 96, 96 96, 64 128 
           C32 96, 32 96, 0 64 
           C32 32, 32 32, 64 0 Z"
        fill="url(#fullGrad)"
        mask="url(#starHole)" />
</svg>